<svg xmlns="http://www.w3.org/2000/svg" viewBox="0 0 512 512">
  <defs>
    <radialGradient id="g1" cx="50%" cy="45%" r="55%">
      <stop offset="0%" stop-color="#bba9ff" stop-opacity="0.95"/>
      <stop offset="60%" stop-color="#7c69ff" stop-opacity="0.55"/>
      <stop offset="100%" stop-color="#1a1f3f" stop-opacity="0.0"/>
    </radialGradient>
    <radialGradient id="g2" cx="70%" cy="30%" r="30%">
      <stop offset="0%" stop-color="#7ce8ff" stop-opacity=".85"/>
      <stop offset="100%" stop-color="#7ce8ff" stop-opacity="0"/>
    </radialGradient>
    <filter id="glow">
      <feGaussianBlur stdDeviation="6" result="b"/>
      <feMerge>
        <feMergeNode in="b"/>
        <feMergeNode in="SourceGraphic"/>
      </feMerge>
    </filter>
  </defs>
  <rect width="100%" height="100%" fill="none"/>
  <circle cx="256" cy="256" r="180" fill="url(#g1)" filter="url(#glow)"/>
  <circle cx="320" cy="200" r="90" fill="url(#g2)"/>
  <g fill="#ffffff" opacity=".8">
    <circle cx="120" cy="150" r="2"/>
    <circle cx="400" cy="220" r="2.5"/>
    <circle cx="330" cy="340" r="1.8"/>
    <circle cx="210" cy="360" r="1.5"/>
    <circle cx="170" cy="260" r="1.2"/>
  </g>
  <g stroke="#e5d9ff" stroke-width="2" opacity=".9">
    <path d="M256 120c6 24 6 48 0 72m0-72c-6 24-6 48 0 72"/>
    <path d="M256 320c6 18 6 36 0 54m0-54c-6 18-6 36 0 54"/>
  </g>
</svg>

